<svg xmlns="http://www.w3.org/2000/svg" viewBox="0 0 156.28 291.73"><defs><style>.cls-1{fill:#614134;}.cls-1,.cls-2,.cls-3,.cls-4{stroke:#231815;stroke-linecap:round;stroke-width:3px;}.cls-1,.cls-2,.cls-4{stroke-linejoin:round;}.cls-2{fill:none;}.cls-3{fill:#231815;stroke-miterlimit:10;}.cls-4{fill:#fffefb;}</style></defs><title>奶茶 (3)</title><g id="图层_2" data-name="图层 2"><g id="物件"><g id="奶茶"><path class="cls-1" d="M21.94,166.78s.94-11.9,60.8-22,61.89-1.46,61.89-1.46l10.08,122.84s-.69,12.6-44,20.72-48.79-1.67-52-2C56.6,278.79,21.94,166.78,21.94,166.78Z"/><line class="cls-2" x1="138.84" y1="73.53" x2="154.71" y2="264.74"/><line class="cls-2" x1="1.57" y1="100.04" x2="58.02" y2="283.41"/><ellipse class="cls-2" cx="106.37" cy="274.08" rx="49.24" ry="13.42" transform="translate(-50.03 25.14) rotate(-10.93)"/><circle class="cls-3" cx="80.31" cy="194.63" r="9.03"/><path class="cls-4" d="M99.42,3.18,38.92,52.56s-2.09,1.39-2.7,5.82,4.5,16.51,4.5,16.51l68.57,189.85s5.62,10,14.74,5.71,7-12.9,7-12.9L63.75,68.24S61.9,61.5,66.83,56.77,114.72,21.2,114.72,21.2s5.06-7.75-.74-15.46S99.42,3.18,99.42,3.18Z"/><circle class="cls-2" cx="105.46" cy="13.54" r="11.55"/><path class="cls-2" d="M131,257.17c0,.12,0,.25.08.38a11.55,11.55,0,0,1-22.69,4.38c0-.24-.08-.48-.11-.71"/><path class="cls-2" d="M108.35,261.93,37,64.49a12.38,12.38,0,0,1,3.85-13.84l59-47.78"/><path class="cls-2" d="M110.62,23.87,68.37,55.4a12.38,12.38,0,0,0-4.25,14.08l66.7,187.18"/><path class="cls-2" d="M90.71,143.38c29-4.81,51.88-5,52.83-.08,1.06,5.46-25.31,15.14-58.89,21.62S23,172.24,21.94,166.78c-.9-4.64,18-12.34,44.37-18.52"/><path class="cls-2" d="M65.59,71.09l1.52-.3c37.91-7.32,70-6.09,71.73,2.74S111.2,95.47,73.29,102.79s-70,6.09-71.72-2.75c-1.3-6.71,15.32-15.88,40-23.11"/><circle class="cls-3" cx="72.93" cy="220.56" r="8.21"/><circle class="cls-3" cx="89.34" cy="240.45" r="8.21"/><circle class="cls-3" cx="66.34" cy="258.18" r="8.21"/><circle class="cls-3" cx="137.75" cy="216.72" r="8.21"/><circle class="cls-3" cx="124.09" cy="241.64" r="8.21"/><circle class="cls-3" cx="119.83" cy="257.14" r="9.03"/><circle class="cls-3" cx="86.29" cy="269.13" r="9.03"/><circle class="cls-3" cx="58.25" cy="239.37" r="9.03"/><circle class="cls-3" cx="142.12" cy="254.94" r="9.03"/><circle class="cls-3" cx="115.06" cy="197.19" r="9.03"/><circle class="cls-3" cx="95.32" cy="212.35" r="9.03"/></g></g></g></svg>