<svg xmlns="http://www.w3.org/2000/svg" viewBox="0 0 221.24 369.7"><defs><style>.cls-1{fill:#154e6b;}.cls-1,.cls-2,.cls-3,.cls-4,.cls-5{stroke:#231815;stroke-linecap:round;stroke-linejoin:round;stroke-width:3px;}.cls-2{fill:#2c774e;}.cls-3{fill:none;}.cls-4{fill:#e68d93;}.cls-5{fill:#ffb047;}</style></defs><title>蝴蝶兰 (2)</title><g id="图层_2" data-name="图层 2"><g id="物件"><g id="蝴蝶兰"><path class="cls-1" d="M96.31,267.76l13.33,90.95c.67,3.25,19.5,9.49,41.13,9.49,21.9,0,38.48-6.3,38.72-9.61L204,267.76"/><path class="cls-2" d="M101.15,150.38s-21.78,84.71,23,110.12S147.14,202.42,101.15,150.38Z"/><path class="cls-2" d="M141.08,260.5s-6.05-61.71,38.73-85.91C187.07,202.42,179.81,273.81,141.08,260.5Z"/><ellipse class="cls-1" cx="150.16" cy="268.37" rx="53.85" ry="10.29"/><ellipse class="cls-3" cx="150.16" cy="267.76" rx="39.33" ry="3.63"/><path class="cls-2" d="M116.88,269S73.32,266.55,54,213.31c29,7.26,37.51,0,85.91,56.87Z"/><path class="cls-2" d="M77,52.37s39.93-35.09,55.66,27.83,16.95,178.28,13.31,181.1l-11.47.84c10.3,1.64,4.21-87.55-6.68-162.58S77,62.05,77,62.05"/><path class="cls-2" d="M145.92,267.76s35.1-64.13,73.82-69c-2.42,27.83-26.62,66.55-36.3,69S150.77,272.6,145.92,267.76Z"/><path class="cls-4" d="M140,43.25S150.83,4.14,128.62,2.81,102.94,25.35,114,38.73c-4.74,9.81-12.23,16.94-.73,26.53S135.35,61.17,140,43.25Z"/><path class="cls-4" d="M146.21,44.81s15.23-37.62,33.64-25.14,6.64,33.51-10.24,37.42C167.4,67.75,169,78,154,78.57S139,61.85,146.21,44.81Z"/><path class="cls-3" d="M122.44,26.71s10.9,5.27,9.88,10.15"/><path class="cls-3" d="M119,50.57s8.11-.11,10.75-5.56"/><path class="cls-3" d="M171.33,39.58s-11.43-4.17-13,1.8"/><path class="cls-3" d="M159.74,63.55s-5-6.42-3.41-12.4"/><circle class="cls-5" cx="142.69" cy="43.22" r="8.47"/><path class="cls-4" d="M85.42,40.27S78.16.33,57.59,8.8,44.28,40.27,60,47.53c0,10.89-3.63,20.57,10.89,24.2S89.05,58.42,85.42,40.27Z"/><path class="cls-4" d="M91.7,39S89-1.54,111.05,1.68,131.61,29,118.12,39.83c2.64,10.57,8.52,19.07-4.69,26.12S92.59,57.45,91.7,39Z"/><path class="cls-3" d="M62.43,33s12.1,0,13.31,4.84"/><path class="cls-3" d="M69.69,56S77,52.37,77,46.32"/><path class="cls-3" d="M112,23.33s-12.1,1.21-10.89,7.26"/><path class="cls-3" d="M112,50s-7.26-3.63-8.47-9.68"/><circle class="cls-3" cx="87.84" cy="39.06" r="8.47"/><path class="cls-4" d="M43.32,77S32.1,38,12.48,48.47,2.39,81.1,18.77,86.75c1.09,10.84-1.55,20.83,13.26,23S48.75,94.68,43.32,77Z"/><path class="cls-4" d="M49.44,75.06S42.74,35,65,36,88.15,61.11,75.81,73.28c3.69,10.24,10.39,18.12-2,26.46S52.18,93.37,49.44,75.06Z"/><path class="cls-3" d="M19.72,72.06s12-1.21,13.73,3.48"/><path class="cls-3" d="M29.25,94.21s6.86-4.34,6.25-10.36"/><path class="cls-3" d="M68.12,57.46S56.2,59.88,58,65.78"/><path class="cls-3" d="M70.78,84s-7.59-2.89-9.4-8.79"/><circle class="cls-5" cx="45.61" cy="75.54" r="8.47"/><path class="cls-4" d="M72.11,59.63S64.85,19.7,44.28,28.17,31,59.63,46.7,66.89c0,10.89-3.63,20.57,10.89,24.2S75.74,77.78,72.11,59.63Z"/><path class="cls-4" d="M78.39,58.33S75.73,17.83,97.74,21s20.56,27.29,7.06,38.15c2.65,10.57,8.53,19.08-4.68,26.13S79.28,76.82,78.39,58.33Z"/><path class="cls-3" d="M49.12,52.37s12.1,0,13.31,4.84"/><path class="cls-3" d="M56.38,75.36s7.26-3.63,7.26-9.68"/><path class="cls-3" d="M98.73,42.69S86.63,43.9,87.84,50"/><path class="cls-3" d="M98.73,69.31s-7.26-3.63-8.47-9.68"/><circle class="cls-5" cx="74.53" cy="58.42" r="8.47"/></g></g></g></svg>