<svg xmlns="http://www.w3.org/2000/svg" viewBox="0 0 301.03 341">
    <defs>
        <style>.cls-1{fill:#7e2216;}.cls-1,.cls-10,.cls-11,.cls-2,.cls-3,.cls-4,.cls-5,.cls-6,.cls-7,.cls-8,.cls-9{stroke:#231815;stroke-linecap:round;stroke-linejoin:round;}.cls-1,.cls-10,.cls-11,.cls-2,.cls-3,.cls-4,.cls-6,.cls-7,.cls-8{stroke-width:3px;}.cls-2{fill:#36553b;}.cls-3{fill:#fa9698;}.cls-4{fill:#2e2d2a;}.cls-11,.cls-5{fill:#d7553c;}.cls-5,.cls-9{stroke-width:3.55px;}.cls-6,.cls-9{fill:none;}.cls-7{fill:#eee4da;}.cls-8{fill:#ff7310;}.cls-10{fill:#f3a71e;}</style>
    </defs>
    <title>古楼 (2)</title>
    <g id="图层_2" data-name="图层 2">
        <g id="物件">
            <g id="古楼">
                <g id="底层">
                    <polyline class="cls-1" points="39.27 200.54 40.9 339.5 261.41 336.92 259.79 198.6"/>
                    <rect class="cls-2" x="103.52" y="220.24" width="89.55" height="118" transform="translate(-3.26 1.75) rotate(-0.67)"/>
                    <rect class="cls-3" x="72.61" y="221.02" width="18.71" height="108.13" transform="translate(-3.21 0.98) rotate(-0.67)"/>
                    <rect class="cls-3" x="206.46" y="219.45" width="18.71" height="108.13" transform="translate(-3.19 2.54) rotate(-0.67)"/>
                    <rect class="cls-4" x="110.84" y="226.08" width="75.57" height="112.15" transform="translate(-3.29 1.76) rotate(-0.67)"/></g>
                <g id="顶3">
                    <polyline class="cls-5" points="49.63 177.8 2.33 200.03 298.58 196.56 246.77 175.49"/>
                    <line class="cls-6" x1="147.1" y1="176.66" x2="147.35" y2="198.33"/>
                    <line class="cls-6" x1="155.13" y1="176.56" x2="157.76" y2="198.21"/>
                    <line class="cls-6" x1="163.78" y1="176.46" x2="167.81" y2="198.09"/>
                    <line class="cls-6" x1="172.06" y1="176.36" x2="178.76" y2="197.96"/>
                    <line class="cls-6" x1="180.7" y1="176.26" x2="189.91" y2="197.83"/>
                    <line class="cls-6" x1="189.65" y1="176.16" x2="199.95" y2="197.71"/>
                    <line class="cls-6" x1="197.94" y1="176.06" x2="209.94" y2="197.6"/>
                    <line class="cls-6" x1="206.23" y1="175.96" x2="219.31" y2="197.49"/>
                    <line class="cls-6" x1="214.67" y1="175.86" x2="229.81" y2="197.36"/>
                    <line class="cls-6" x1="222.38" y1="175.77" x2="240.13" y2="197.24"/>
                    <line class="cls-6" x1="231.13" y1="175.67" x2="251.46" y2="197.11"/>
                    <line class="cls-6" x1="239.88" y1="175.57" x2="264.24" y2="196.96"/><line class="cls-6" x1="246.77" y1="175.49" x2="278.66" y2="196.79"/><line class="cls-6" x1="140.49" y1="176.73" x2="138.37" y2="198.43"/><line class="cls-6" x1="131.84" y1="176.83" x2="128.32" y2="198.55"/><line class="cls-6" x1="123.56" y1="176.93" x2="117.37" y2="198.68"/><line class="cls-6" x1="114.92" y1="177.03" x2="106.22" y2="198.81"/><line class="cls-6" x1="105.97" y1="177.14" x2="96.18" y2="198.93"/><line class="cls-6" x1="97.68" y1="177.23" x2="86.19" y2="199.05"/><line class="cls-6" x1="89.39" y1="177.33" x2="76.82" y2="199.16"/><line class="cls-6" x1="80.95" y1="177.43" x2="66.32" y2="199.28"/><line class="cls-6" x1="73.24" y1="177.52" x2="56" y2="199.4"/><line class="cls-6" x1="64.49" y1="177.62" x2="44.67" y2="199.53"/><line class="cls-6" x1="55.74" y1="177.73" x2="31.89" y2="199.68"/><line class="cls-6" x1="48.85" y1="177.81" x2="17.46" y2="199.85"/><path class="cls-7" d="M1.51,201c-.5,11.54,16.5,11.85,16-.19h.62c-.51,11.53,16.49,11.85,16-.19h.62c-.51,11.54,16.49,11.86,16-.18h.62c-.51,11.53,16.49,11.85,16-.19h.61c-.51,11.54,16.5,11.86,16-.18h.61c-.51,11.53,16.5,11.85,16-.19H101c-.51,11.53,16.5,11.85,16-.19h.62c-.51,11.53,16.49,11.86,16-.19h.62c-.51,11.53,16.49,11.85,16-.19h.61c-.51,11.54,16.5,11.86,16-.18h.61c-.51,11.53,16.5,11.85,16-.19H184c-.51,11.54,16.5,11.86,16-.18h.62c-.51,11.53,16.49,11.86,16-.19h.62c-.51,11.53,16.49,11.85,16-.19h.61c-.51,11.54,16.5,11.86,16-.19h.61c-.51,11.53,16.5,11.85,16-.19h.62c-.51,11.54,16.5,11.86,16-.18h.62c-.51,11.53,16.49,11.85,16-.19h0"/></g><g id="顶2"><polyline class="cls-1" points="48.99 123.13 49.63 177.8 246.77 175.49 246.13 120.82"/><polyline class="cls-5" points="58.52 100 18.97 123.48 280.52 120.42 237.35 100.46"/><path class="cls-8" d="M158.63,128.51c7.41,2.35,12.49,7.11,12.55,12.65.1,8-10.29,14.61-23.2,14.76s-23.46-6.21-23.55-14.21c-.07-5.75,5.26-10.77,13-13.21"/><line class="cls-6" x1="148.14" y1="167.84" x2="148.02" y2="156.94"/><line class="cls-6" x1="152.41" y1="167.79" x2="152.28" y2="156.89"/><line class="cls-6" x1="143.98" y1="167.89" x2="143.85" y2="156.99"/><line class="cls-6" x1="156.49" y1="167.74" x2="156.34" y2="155.25"/><line class="cls-6" x1="140.04" y1="167.94" x2="139.9" y2="155.44"/><path class="cls-8" d="M96.18,129.24c7.41,2.35,12.49,7.11,12.56,12.65.09,8-10.3,14.61-23.21,14.76S62.08,150.44,62,142.44c-.07-5.74,5.27-10.77,13.06-13.21"/><line class="cls-6" x1="85.7" y1="168.57" x2="85.57" y2="157.68"/><line class="cls-6" x1="89.97" y1="168.52" x2="89.84" y2="157.63"/><line class="cls-6" x1="81.54" y1="168.62" x2="81.41" y2="157.72"/><line class="cls-6" x1="94.05" y1="168.48" x2="93.9" y2="155.98"/><line class="cls-6" x1="77.6" y1="168.67" x2="77.45" y2="156.17"/><path class="cls-8" d="M223,127.75c7.41,2.35,12.49,7.11,12.56,12.66.09,8-10.3,14.61-23.21,14.76S188.87,149,188.78,141c-.07-5.74,5.26-10.76,13.05-13.2"/><line class="cls-6" x1="212.49" y1="167.09" x2="212.37" y2="156.19"/><line class="cls-6" x1="216.76" y1="167.04" x2="216.64" y2="156.14"/><line class="cls-6" x1="208.33" y1="167.14" x2="208.2" y2="156.24"/><line class="cls-6" x1="220.84" y1="166.99" x2="220.7" y2="154.49"/><line class="cls-6" x1="204.4" y1="167.18" x2="204.25" y2="154.69"/><path class="cls-7" d="M19.84,124.32a8.07,8.07,0,0,0,16.13-.2,8.06,8.06,0,1,0,16.12-.18,8.06,8.06,0,0,0,16.12-.19,8.06,8.06,0,0,0,16.12-.19,8.06,8.06,0,0,0,16.12-.19,8.07,8.07,0,0,0,16.13-.19A8.06,8.06,0,1,0,132.7,123a8.06,8.06,0,1,0,16.12-.19,8.06,8.06,0,1,0,16.12-.19,8.06,8.06,0,1,0,16.12-.18,8.06,8.06,0,0,0,16.12-.19,8.07,8.07,0,0,0,16.13-.19,8.06,8.06,0,1,0,16.12-.19,8.06,8.06,0,1,0,16.12-.19,8.06,8.06,0,1,0,16.12-.19,8.06,8.06,0,0,0,16.12.26"/><line class="cls-9" x1="116.53" y1="101.15" x2="102.61" y2="121.36"/><line class="cls-9" x1="105.87" y1="101.27" x2="89.83" y2="121.57"/><line class="cls-9" x1="95.82" y1="101.39" x2="76.44" y2="121.59"/><line class="cls-9" x1="85.35" y1="101.87" x2="61.73" y2="121.81"/><line class="cls-6" x1="76.46" y1="101.61" x2="47.35" y2="122.47"/><line class="cls-6" x1="65.96" y1="101.74" x2="32.19" y2="122.76"/><line class="cls-9" x1="146.21" y1="100.8" x2="146.44" y2="120.52"/><line class="cls-9" x1="158.63" y1="100.65" x2="162.9" y2="120.69"/><line class="cls-9" x1="168.59" y1="100.54" x2="177.85" y2="120.16"/><line class="cls-9" x1="178.1" y1="100.42" x2="192.22" y2="120.89"/><line class="cls-9" x1="188.76" y1="100.3" x2="205.58" y2="120.59"/><line class="cls-9" x1="198.81" y1="100.18" x2="219.17" y2="120.43"/><line class="cls-9" x1="209.29" y1="100.42" x2="233.95" y2="120.26"/><line class="cls-6" x1="218.17" y1="99.96" x2="248.01" y2="120.29"/><line class="cls-6" x1="228.67" y1="99.83" x2="262.58" y2="120.15"/><line class="cls-9" x1="136" y1="100.92" x2="131.99" y2="122.15"/><line class="cls-9" x1="126.04" y1="101.03" x2="117.24" y2="120.87"/></g><g id="顶"><polyline class="cls-1" points="69.12 43.84 69.61 85.25 224.31 83.44 223.82 42.03"/><polyline class="cls-10" points="131.92 44.81 132.28 76.24 162.6 75.89 162.23 44.46"/><g id="灯"><g id="灯笼"><path class="cls-8" d="M105,46.32c2.9,2,4.7,4.81,4.73,7.9.08,6.29-7.18,11.48-16.2,11.59S77.13,60.9,77.06,54.6c0-3.25,1.88-6.21,5-8.32"/><line class="cls-6" x1="93.66" y1="76.71" x2="93.53" y2="65.81"/><line class="cls-6" x1="97.93" y1="76.66" x2="97.8" y2="65.76"/><line class="cls-6" x1="89.49" y1="76.75" x2="89.37" y2="65.86"/><line class="cls-6" x1="102" y1="76.61" x2="101.86" y2="64.11"/><line class="cls-6" x1="85.56" y1="76.8" x2="85.41" y2="64.3"/></g><g id="灯笼-2" data-name="灯笼"><path class="cls-8" d="M210.82,45.08c2.89,2,4.7,4.81,4.73,7.9.08,6.3-7.18,11.48-16.2,11.59S183,59.66,182.88,53.36c0-3.25,1.88-6.2,5-8.32"/><line class="cls-6" x1="199.48" y1="75.47" x2="199.35" y2="64.57"/><line class="cls-6" x1="203.74" y1="75.42" x2="203.62" y2="64.52"/><line class="cls-6" x1="195.31" y1="75.52" x2="195.19" y2="64.62"/><line class="cls-6" x1="207.82" y1="75.37" x2="207.68" y2="62.87"/><line class="cls-6" x1="191.38" y1="75.56" x2="191.23" y2="63.06"/></g></g><path class="cls-11" d="M94.52,2.64S107.8,13.2,141.89,12.8s50-11.3,50-11.3,22.83,35.78,67.64,35.25l-222.1,2.6-4.87.06S93,34.81,94.52,2.64Z"/><path class="cls-7" d="M34.55,41.07c-.52,9.49,15,9.59,12.78-1.4H48c-2.6,9.58,14.74,12.24,12.52-.15h.63c-2.6,9.59,14.74,12.25,12.52-.14h.63C71.66,48.93,89,51.59,86.78,39.2h.63c-2.6,9.58,14.74,12.24,12.52-.15h.63c-2.6,9.59,14.74,12.24,12.52-.14h.63c-2.6,9.58,14.74,12.24,12.52-.15h.63c-2.6,9.59,14.74,12.25,12.52-.14H140c-2.6,9.58,14.74,12.24,12.52-.15h.63c-2.6,9.58,14.74,12.24,12.52-.15h.63c-2.6,9.59,14.74,12.24,12.52-.14h.63C176.86,47.7,194.2,50.36,192,38h.63c-2.59,9.59,14.75,12.25,12.52-.14h.63c-2.59,9.58,14.75,12.24,12.52-.15h.63c-2.59,9.58,14.75,12.24,12.52-.15h.64c-2.6,9.59,14.74,12.24,12.51-.14h.64c-2.6,9.58,14.74,12.24,12.51-.15h.07"/><path class="cls-6" d="M109.41,9.1l-16.85,29"/><path class="cls-6" d="M101.88,7.26,77.21,37.51"/><line class="cls-6" x1="153.21" y1="12.62" x2="155.87" y2="37.1"/><line class="cls-6" x1="160.15" y1="12.54" x2="165.92" y2="37.18"/><line class="cls-6" x1="167.21" y1="10.29" x2="176.88" y2="37.05"/><line class="cls-6" x1="174.61" y1="8.55" x2="188.01" y2="36.19"/><line class="cls-6" x1="181.13" y1="6.51" x2="199.71" y2="36.79"/><line class="cls-6" x1="187.63" y1="3.83" x2="215.04" y2="35.88"/><path class="cls-6" d="M145.79,12.73l.27,23.78"/><path class="cls-6" d="M138.48,12.81l-2,24.37"/><line class="cls-6" x1="131.54" y1="12.89" x2="126.35" y2="37.66"/><path class="cls-6" d="M124,12.16l-8.59,25.63"/><path class="cls-6" d="M115.9,11.63,104.24,37.19"/></g><g id="栏"><polygon class="cls-1" points="58.52 100 58.35 85.39 237.15 83.29 237.35 99.73 58.52 100"/><line class="cls-6" x1="219.32" y1="83.5" x2="219.49" y2="98.16"/><line class="cls-6" x1="228.48" y1="83.39" x2="228.65" y2="98.06"/><line class="cls-6" x1="63.55" y1="85.33" x2="63.72" y2="99.99"/><line class="cls-6" x1="72.71" y1="85.22" x2="72.89" y2="99.88"/><line class="cls-6" x1="81.88" y1="85.11" x2="82.05" y2="99.77"/><line class="cls-6" x1="91.04" y1="85" x2="91.21" y2="99.67"/><line class="cls-6" x1="100.2" y1="84.9" x2="100.37" y2="99.56"/><line class="cls-6" x1="109.36" y1="84.79" x2="109.54" y2="99.45"/><line class="cls-6" x1="118.53" y1="84.68" x2="118.7" y2="99.34"/><line class="cls-6" x1="127.69" y1="84.57" x2="127.86" y2="99.24"/><line class="cls-6" x1="136.85" y1="84.47" x2="137.02" y2="99.13"/><line class="cls-6" x1="146.02" y1="84.36" x2="146.19" y2="99.02"/><line class="cls-6" x1="155.18" y1="84.25" x2="155.35" y2="98.92"/><line class="cls-6" x1="164.34" y1="84.15" x2="164.51" y2="98.81"/><line class="cls-6" x1="173.5" y1="84.04" x2="173.67" y2="98.7"/><line class="cls-6" x1="182.67" y1="83.93" x2="182.84" y2="98.59"/><line class="cls-6" x1="191.83" y1="83.82" x2="192" y2="98.49"/><line class="cls-6" x1="200.99" y1="83.72" x2="201.16" y2="98.38"/><line class="cls-6" x1="210.15" y1="83.61" x2="210.33" y2="98.27"/></g></g></g></g></svg>
