<svg xmlns="http://www.w3.org/2000/svg" viewBox="0 0 246.45 305.03"><defs><style>.cls-1{fill:#7e2216;}.cls-1,.cls-2,.cls-3,.cls-4{stroke:#231815;stroke-linecap:round;stroke-linejoin:round;stroke-width:3px;}.cls-2{fill:#d7553c;}.cls-3{fill:none;}.cls-4{fill:#d24206;}</style></defs><title>灯笼 (3)</title><g id="图层_2" data-name="图层 2"><g id="物件"><g id="灯笼"><path class="cls-1" d="M39.17,219.93l-.12,10.17a99.27,99.27,0,0,0,27,4.1c15.06.17,24.87-4.12,24.87-4.12l.11-9.54"/><path class="cls-1" d="M43.41,15.13,43.54,5a99.36,99.36,0,0,1,27-3.45c15.06.17,24.77,4.7,24.77,4.7l-.11,9.54"/><path class="cls-2" d="M3.44,40.8c.31-26.44,54.89-27.48,66.22-27.34s67.51,6.25,67.24,28.92l-1.77,149s1.75,29.72-67.08,28.9C-4.77,219.41,1.64,192.1,1.64,192.1Z"/><path class="cls-3" d="M39.05,230.1s2.68,35.34-6,36.9"/><path class="cls-3" d="M50.41,234.2s2.68,35.34-6,36.9"/><path class="cls-3" d="M64.05,235.22s2.67,35.35-6,36.9"/><path class="cls-3" d="M78.55,235.13s5,35.09-3.59,37.21"/><path class="cls-3" d="M90.72,231.24S97.43,266,89,268.59"/><path class="cls-1" d="M124.94,246.93,123.5,257a99.54,99.54,0,0,0,26.2,7.55c14.91,2.13,25.2-.86,25.2-.86l1.34-9.45"/><path class="cls-1" d="M155.65,44.41l1.43-10.07a99.12,99.12,0,0,1,27.27.07c14.91,2.13,24,7.87,24,7.87L207,51.72"/><path class="cls-4" d="M112.68,64.68c3.74-26.18,58-20.14,69.21-18.54S248,61.08,244.82,83.52L223.79,231s-2.12,29.69-70.26,20c-72.09-10.28-62.2-36.54-62.2-36.54Z"/><path class="cls-3" d="M123.5,257s-1.92,35.39-10.73,35.81"/><path class="cls-3" d="M134.24,262.53s-1.93,35.39-10.74,35.81"/><path class="cls-3" d="M147.63,265.31s-1.92,35.4-10.74,35.82"/><path class="cls-3" d="M162,267.1s.39,35.44-8.37,36.43"/><path class="cls-3" d="M174.59,264.82s2.15,35.38-6.56,36.8"/></g></g></g></svg>