<svg xmlns:xlink="http://www.w3.org/1999/xlink" xmlns="http://www.w3.org/2000/svg" version="1.1" viewBox="0 0 153 236" height="236px" width="153px">
    
    <title>snowman (3)副本</title>
    <desc>Created with Sketch.</desc>
    <defs></defs>
    <g fill-rule="evenodd" fill="none" stroke-width="1" stroke="none" id="Page-1">
        <g transform="translate(2.000000, 1.000000)" id="snowman-(3)副本">
            <path stroke-linejoin="round" stroke-linecap="round" fill-rule="nonzero" fill="#FFFFFF" stroke-width="3" stroke="#6E6E96" id="Shape" d="M74.929,98.245 C73.653,98.245 72.384,98.278 71.123,98.34 C70.027,98.284 68.933,98.246 67.847,98.246 C43.721,98.246 23.757,111.381 13.102,130.695 C11.404,133.773 8.968,137.012 7.822,140.376 C3.096,150.161 0.446,161.138 0.446,172.73 C0.446,213.868 33.794,232.977 74.929,232.977 C116.066,232.977 149.415,213.868 149.415,172.73 C149.416,131.593 116.067,98.246 74.929,98.245 Z"></path>
            <path opacity="0.1" fill-rule="nonzero" fill="#6E6E96" id="Shape" d="M75.432,97.742 C74.156,97.742 72.887,97.774 71.626,97.837 C70.53,97.781 69.436,97.743 68.35,97.743 C44.224,97.743 24.26,110.878 13.605,130.193 C11.907,133.271 9.47,136.508 8.325,139.873 C3.598,149.659 0.949,160.634 0.949,172.227 C0.949,213.364 34.297,232.473 75.432,232.473 C116.569,232.473 149.919,213.364 149.919,172.227 C149.919,131.09 116.569,97.743 75.432,97.742 Z M69.073,216.555 C34.365,216.555 6.229,201.731 6.229,169.818 C6.229,160.825 8.464,152.309 12.452,144.718 C13.419,142.109 15.474,139.596 16.907,137.208 C15.008,138.091 40.968,167.292 61.324,167.292 C62.24,167.292 63.164,167.321 64.089,167.364 C65.153,167.314 66.223,167.291 67.3,167.291 C67.3,167.291 71.986,167.382 71.986,180.121 C71.986,192.862 71.986,216.387 71.986,216.387 L76.84,216.287 C74.293,216.459 71.705,216.555 69.073,216.555 Z M107.51,208.637 L115.815,203.47 L108.48,158.004 C119.541,159.917 131.92,148.392 131.92,169.817 C131.921,188.414 122.353,201.198 107.51,208.637 Z"></path>
            <ellipse ry="36.952" rx="54.883" cy="115.595" cx="73.261" stroke-linejoin="round" stroke-linecap="round" fill-rule="nonzero" fill="#FF7073" stroke-width="3" stroke="#6E6E96" id="Oval"></ellipse>
            <path stroke-linejoin="round" stroke-linecap="round" fill-rule="nonzero" fill="#FF7073" stroke-width="3" stroke="#6E6E96" id="Shape" d="M48.174,148.458 C48.174,148.458 81.119,153.103 81.119,181.404 C81.119,209.705 81.119,209.705 81.119,209.705 L107.511,201.661 C107.511,201.661 114.771,157.405 82.368,152.033 C82.368,152.032 60.659,154.388 48.174,148.458 Z"></path>
            <path stroke-linejoin="round" stroke-linecap="round" fill-rule="nonzero" fill="#FFFFFF" stroke-width="3" stroke="#6E6E96" id="Shape" d="M74.929,35.521 C47.505,35.521 25.273,57.752 25.273,85.178 C25.273,112.602 47.504,130.479 74.929,130.479 C102.354,130.479 124.585,112.602 124.585,85.178 C124.585,57.754 102.354,35.521 74.929,35.521 Z"></path>
            <path stroke-linejoin="round" stroke-linecap="round" stroke-width="3" stroke="#6E6E96" id="Shape" d="M83.788,97.159 C81.718,105.868 72.534,111.145 63.275,108.944 C54.015,106.742 48.19,97.899 50.26,89.188"></path>
            <path stroke-linejoin="round" stroke-linecap="round" fill-rule="nonzero" fill="#FF7073" stroke-width="3" stroke="#6E6E96" id="Shape" d="M36.009,100.645 C35.31,98.856 38.429,95.45 42.94,93.072 L63.08,82.456 C67.591,80.079 72.565,81.425 74.135,85.446 C75.706,89.468 72.974,93.885 68.065,95.261 L46.202,101.391 C41.292,102.77 36.707,102.434 36.009,100.645 Z"></path>
            <path stroke-linejoin="round" stroke-linecap="round" fill-rule="nonzero" fill="#8C8FB3" stroke-width="3" stroke="#6E6E96" id="Shape" d="M125.855,48.77 C124.103,57.845 104.436,61.263 81.926,56.407 C59.419,51.551 42.594,40.258 44.346,31.185 C46.101,22.112 63.805,28.854 86.314,33.71 C108.823,38.566 127.612,39.697 125.855,48.77 Z"></path>
            <path stroke-linejoin="round" stroke-linecap="round" fill-rule="nonzero" fill="#8C8FB3" stroke-width="3" stroke="#6E6E96" id="Shape" d="M67.484,36.313 C67.484,36.313 73.025,33.651 73.025,14.652 C73.025,-4.346 98.652,-2.34 116.202,11.774 C124.093,19.662 118.777,21.903 112.75,28.326 C106.679,34.796 104.296,40.999 104.296,43.36"></path>
            <path fill-rule="nonzero" fill="#6E6E96" id="Shape" d="M63.711,69.018 C63.16,70.78 61.204,71.756 59.34,71.195 C57.476,70.634 56.412,68.749 56.964,66.987 C57.515,65.222 59.473,64.251 61.335,64.809 C63.198,65.371 64.262,67.255 63.711,69.018 Z"></path>
            <path fill-rule="nonzero" fill="#6E6E96" id="Shape" d="M87.553,73.969 C86.973,75.825 84.913,76.851 82.953,76.261 C80.986,75.67 79.866,73.686 80.445,71.827 C81.026,69.972 83.087,68.945 85.049,69.535 C87.016,70.127 88.135,72.113 87.553,73.969 Z"></path>
            <path opacity="0.15" fill-rule="nonzero" fill="#6E6E96" id="Shape" d="M21.724,102.862 C21.724,102.862 13.149,139.557 72.488,143.077 C131.826,146.598 121.555,101.755 121.555,101.755 C121.555,101.755 150.912,135.22 84.545,152.475 C84.546,152.475 6.07,153.018 21.724,102.862 Z"></path>
            <path stroke-linejoin="round" stroke-linecap="round" fill-rule="nonzero" fill="#FF7073" stroke-width="3" stroke="#6E6E96" id="Shape" d="M72.029,137.16 C72.029,137.16 61.871,139.845 61.871,152.406 C61.871,164.973 81.859,157.383 86.952,149.791 C92.047,142.199 88.482,132.122 72.029,137.16 Z"></path>
            <path opacity="0.15" fill-rule="nonzero" fill="#6E6E96" id="Shape" d="M64.837,142.401 C64.837,142.401 60.168,154.895 71.483,151.878 C82.797,148.861 87.717,139.082 85.924,137.289 C85.924,137.289 91.868,147.88 84.548,152.476 C77.228,157.072 52.447,166.365 64.837,142.401 Z"></path>
            <path opacity="0.15" fill-rule="nonzero" fill="#6E6E96" id="Shape" d="M81.957,208.867 C81.957,208.867 90.679,185.951 86.317,165.958 C81.957,145.965 107.51,168.723 107.51,201.661 C107.51,201.661 114.924,156.629 84.547,152.474 C84.547,152.474 77.024,158.263 72.488,158.665 C72.489,158.666 87.075,172.574 81.957,208.867 Z"></path>
            <path opacity="0.1" fill-rule="nonzero" fill="#6E6E96" id="Shape" d="M111.054,65.539 C111.73,68.57 112.917,74.852 112.917,78.085 C112.917,101.872 93.636,117.376 69.85,117.376 C47.139,117.376 28.548,103.236 26.912,81.254 C26.835,82.385 26.782,83.523 26.782,84.673 C26.782,112.097 49.013,129.974 76.439,129.974 C103.864,129.974 126.093,112.097 126.093,84.673 C126.093,76.844 122.772,67.929 119.544,61.342"></path>
            <path opacity="0.15" fill-rule="nonzero" fill="#6E6E96" id="Shape" d="M48.27,27.127 C48.27,27.127 48.587,44.249 75.002,46.525 C101.418,48.801 127.416,51.959 115.091,39.634 C115.091,39.634 141.662,53.7 111.054,65.539 C80.446,77.379 30.589,39.602 48.27,27.127 Z"></path>
            <path opacity="0.25" fill-rule="nonzero" fill="#6E6E96" id="Shape" d="M83.31,1.336 C83.31,1.336 111.402,4.594 101.499,19.525 C91.598,34.456 91.598,43.507 91.598,43.507 L104.215,43.507 C104.215,43.507 113.721,26.859 118.86,21.966 C124,17.075 110.727,-3.121 83.31,1.336 Z"></path>
        </g>
    </g>
</svg>
